<?xml version="1.0" encoding="UTF-8" standalone="no"?>
<!-- Generator: Adobe Illustrator 19.0.0, SVG Export Plug-In . SVG Version: 6.00 Build 0)  -->

<svg
   version="1.1"
   id="Layer_1"
   x="0px"
   y="0px"
   viewBox="0 0 499.93121 499.93121"
   xml:space="preserve"
   sodipodi:docname="clear.svg"
   width="499.93121"
   height="499.93121"
   inkscape:version="1.2.2 (732a01da63, 2022-12-09)"
   xmlns:inkscape="http://www.inkscape.org/namespaces/inkscape"
   xmlns:sodipodi="http://sodipodi.sourceforge.net/DTD/sodipodi-0.dtd"
   xmlns="http://www.w3.org/2000/svg"
   xmlns:svg="http://www.w3.org/2000/svg"><defs
   id="defs302" /><sodipodi:namedview
   id="namedview300"
   pagecolor="#ffffff"
   bordercolor="#000000"
   borderopacity="0.25"
   inkscape:showpageshadow="2"
   inkscape:pageopacity="0.0"
   inkscape:pagecheckerboard="0"
   inkscape:deskcolor="#d1d1d1"
   showgrid="false"
   inkscape:zoom="1.0097656"
   inkscape:cx="249.56286"
   inkscape:cy="250.55319"
   inkscape:window-width="1366"
   inkscape:window-height="697"
   inkscape:window-x="-8"
   inkscape:window-y="-8"
   inkscape:window-maximized="1"
   inkscape:current-layer="Layer_1" />
<style
   type="text/css"
   id="style240">
	.st0{fill-rule:evenodd;clip-rule:evenodd;fill:url(#XMLID_2_);}
	.st1{fill-rule:evenodd;clip-rule:evenodd;fill:url(#XMLID_3_);}
	.st2{fill-rule:evenodd;clip-rule:evenodd;fill:url(#XMLID_4_);}
	.st3{fill-rule:evenodd;clip-rule:evenodd;fill:url(#XMLID_5_);}
	.st4{fill-rule:evenodd;clip-rule:evenodd;fill:url(#XMLID_6_);}
	.st5{fill-rule:evenodd;clip-rule:evenodd;fill:url(#XMLID_7_);}
	.st6{fill-rule:evenodd;clip-rule:evenodd;fill:url(#XMLID_8_);}
	.st7{fill-rule:evenodd;clip-rule:evenodd;fill:url(#XMLID_9_);}
	.st8{fill-rule:evenodd;clip-rule:evenodd;fill:url(#XMLID_10_);}
	.st9{opacity:0.5;fill:#D58128;}
	.st10{opacity:0.2;fill:#D58128;}
</style>
<g
   id="XMLID_27_"
   transform="translate(-6.0843934,-6.0843934)">
	
		<linearGradient
   id="XMLID_2_"
   gradientUnits="userSpaceOnUse"
   x1="261.03421"
   y1="14.0686"
   x2="261.03421"
   y2="349.5351"
   gradientTransform="matrix(0.9546,0.2978,-0.2978,0.9546,61.1308,4.1511)">
		<stop
   offset="0"
   style="stop-color:#FDD900"
   id="stop242" />
		<stop
   offset="1"
   style="stop-color:#E29F25"
   id="stop244" />
	</linearGradient>
	<circle
   id="XMLID_496_"
   class="st0"
   cx="256.20001"
   cy="255.39999"
   r="167.7"
   style="fill:url(#XMLID_2_)" />
	
		<linearGradient
   id="XMLID_3_"
   gradientUnits="userSpaceOnUse"
   x1="417.15271"
   y1="-7.9987001"
   x2="417.15271"
   y2="60.524601"
   gradientTransform="matrix(0.9546,0.2978,-0.2978,0.9546,61.1308,4.1511)">
		<stop
   offset="0"
   style="stop-color:#FDD900"
   id="stop248" />
		<stop
   offset="1"
   style="stop-color:#E6A323"
   id="stop250" />
	</linearGradient>
	<path
   id="XMLID_495_"
   class="st1"
   d="M 487.1,134.8 C 482,125 469.8,121.2 460,126.3 L 424.4,145 c -9.8,5.1 -13.6,17.3 -8.5,27.1 5.1,9.8 17.3,13.6 27.1,8.5 L 478.6,162 c 9.8,-5.2 13.6,-17.4 8.5,-27.2 z"
   style="fill:url(#XMLID_3_)" />
	
		<linearGradient
   id="XMLID_4_"
   gradientUnits="userSpaceOnUse"
   x1="104.9157"
   y1="304.23831"
   x2="104.9157"
   y2="372.76169"
   gradientTransform="matrix(0.9546,0.2978,-0.2978,0.9546,61.1308,4.1511)">
		<stop
   offset="0"
   style="stop-color:#FDD900"
   id="stop254" />
		<stop
   offset="1"
   style="stop-color:#E6A323"
   id="stop256" />
	</linearGradient>
	<path
   id="XMLID_494_"
   class="st2"
   d="M 96,339.9 C 90.9,330.1 78.7,326.3 68.9,331.4 L 33.3,350 c -9.8,5.1 -13.6,17.3 -8.5,27.1 5.1,9.8 17.3,13.6 27.1,8.5 L 87.6,367 c 9.8,-5.2 13.6,-17.3 8.4,-27.1 z"
   style="fill:url(#XMLID_4_)" />
	
		<linearGradient
   id="XMLID_5_"
   gradientUnits="userSpaceOnUse"
   x1="481.81421"
   y1="162.2933"
   x2="481.81421"
   y2="202.4319"
   gradientTransform="matrix(0.9546,0.2978,-0.2978,0.9546,61.1308,4.1511)">
		<stop
   offset="0"
   style="stop-color:#FDD900"
   id="stop260" />
		<stop
   offset="1"
   style="stop-color:#E6A323"
   id="stop262" />
	</linearGradient>
	<path
   id="XMLID_492_"
   class="st3"
   d="m 505.1,333.7 c 3.3,-10.6 -2.6,-21.8 -13.2,-25.1 l -38.3,-12 c -10.6,-3.3 -21.8,2.6 -25.1,13.2 -3.3,10.6 2.6,21.8 13.2,25.1 l 38.3,12 c 10.5,3.3 21.8,-2.6 25.1,-13.2 z"
   style="fill:url(#XMLID_5_)" />
	
		<linearGradient
   id="XMLID_6_"
   gradientUnits="userSpaceOnUse"
   x1="40.254398"
   y1="162.3311"
   x2="40.254398"
   y2="202.4697"
   gradientTransform="matrix(0.9546,0.2978,-0.2978,0.9546,61.1308,4.1511)">
		<stop
   offset="0"
   style="stop-color:#FDD900"
   id="stop266" />
		<stop
   offset="1"
   style="stop-color:#E6A323"
   id="stop268" />
	</linearGradient>
	<path
   id="XMLID_491_"
   class="st4"
   d="M 83.6,202.2 C 86.9,191.6 81,180.4 70.4,177.1 l -38.3,-12 c -10.6,-3.3 -21.8,2.6 -25.1,13.2 -3.3,10.6 2.6,21.8 13.2,25.1 l 38.3,12 c 10.5,3.3 21.7,-2.6 25.1,-13.2 z"
   style="fill:url(#XMLID_6_)" />
	
		<linearGradient
   id="XMLID_7_"
   gradientUnits="userSpaceOnUse"
   x1="104.9157"
   y1="-7.9987001"
   x2="104.9157"
   y2="60.524601"
   gradientTransform="matrix(0.9546,0.2978,-0.2978,0.9546,61.1308,4.1511)">
		<stop
   offset="0"
   style="stop-color:#FDD900"
   id="stop272" />
		<stop
   offset="1"
   style="stop-color:#E6A323"
   id="stop274" />
	</linearGradient>
	<path
   id="XMLID_489_"
   class="st5"
   d="M 134.8,24.9 C 125,30 121.2,42.2 126.3,52 L 145,87.6 c 5.1,9.8 17.3,13.6 27.1,8.5 9.8,-5.1 13.6,-17.3 8.5,-27.1 L 162,33.4 c -5.2,-9.8 -17.4,-13.6 -27.2,-8.5 z"
   style="fill:url(#XMLID_7_)" />
	
		<linearGradient
   id="XMLID_8_"
   gradientUnits="userSpaceOnUse"
   x1="417.15271"
   y1="304.23831"
   x2="417.15271"
   y2="372.76169"
   gradientTransform="matrix(0.9546,0.2978,-0.2978,0.9546,61.1308,4.1511)">
		<stop
   offset="0"
   style="stop-color:#FDD900"
   id="stop278" />
		<stop
   offset="1"
   style="stop-color:#E6A323"
   id="stop280" />
	</linearGradient>
	<path
   id="XMLID_477_"
   class="st6"
   d="m 339.9,416 c -9.8,5.1 -13.6,17.3 -8.5,27.1 l 18.6,35.6 c 5.1,9.8 17.3,13.6 27.1,8.5 9.8,-5.1 13.6,-17.3 8.5,-27.1 L 367,424.4 c -5.2,-9.8 -17.3,-13.6 -27.1,-8.4 z"
   style="fill:url(#XMLID_8_)" />
	
		<linearGradient
   id="XMLID_9_"
   gradientUnits="userSpaceOnUse"
   x1="261.05331"
   y1="363.02271"
   x2="261.05331"
   y2="443.2999"
   gradientTransform="matrix(0.9546,0.2978,-0.2978,0.9546,61.1308,4.1511)">
		<stop
   offset="0"
   style="stop-color:#FDD900"
   id="stop284" />
		<stop
   offset="1"
   style="stop-color:#E6A323"
   id="stop286" />
	</linearGradient>
	<path
   id="XMLID_475_"
   class="st7"
   d="m 178.3,505.1 c 10.6,3.3 21.8,-2.6 25.1,-13.2 l 12,-38.3 c 3.3,-10.6 -2.6,-21.8 -13.2,-25.1 -10.6,-3.3 -21.8,2.6 -25.1,13.2 l -12,38.3 c -3.3,10.5 2.6,21.8 13.2,25.1 z"
   style="fill:url(#XMLID_9_)" />
	
		<linearGradient
   id="XMLID_10_"
   gradientUnits="userSpaceOnUse"
   x1="261.0155"
   y1="-78.536903"
   x2="261.0155"
   y2="1.7398"
   gradientTransform="matrix(0.9546,0.2978,-0.2978,0.9546,61.1308,4.1511)">
		<stop
   offset="0"
   style="stop-color:#FDD900"
   id="stop290" />
		<stop
   offset="1"
   style="stop-color:#E6A323"
   id="stop292" />
	</linearGradient>
	<path
   id="XMLID_474_"
   class="st8"
   d="m 309.8,83.6 c 10.6,3.3 21.8,-2.6 25.1,-13.2 l 12,-38.3 C 350.2,21.5 344.3,10.3 333.7,7 323.1,3.7 311.9,9.6 308.6,20.2 l -12,38.3 c -3.3,10.5 2.6,21.7 13.2,25.1 z"
   style="fill:url(#XMLID_10_)" />
	<path
   id="XMLID_470_"
   class="st9"
   d="m 248.7,422.5 c 43.6,1.4 93.8,-14.3 123.7,-47.2 -31.8,16.3 -73.6,35.4 -121.5,33.9 -47.9,-1.5 -73.3,-12.5 -100,-24.4 22.2,18 53.6,36.3 97.8,37.7 z" />
	<path
   id="XMLID_469_"
   class="st10"
   d="m 263.3,86.3 c -43.1,-1.4 -92.8,14.4 -122.4,47.2 31.5,-16.3 72.8,-35.4 120.1,-33.9 47.3,1.5 72.5,12.5 98.9,24.4 C 338,105.9 307,87.6 263.3,86.3 Z" />
</g>
</svg>
