<?xml version="1.0" encoding="UTF-8" standalone="no"?>
<!-- Generator: Adobe Illustrator 19.0.0, SVG Export Plug-In . SVG Version: 6.00 Build 0)  -->

<svg
   version="1.1"
   id="Layer_1"
   x="0px"
   y="0px"
   viewBox="0 0 500.20001 301.10001"
   xml:space="preserve"
   sodipodi:docname="overcast.svg"
   width="500.20001"
   height="301.10001"
   inkscape:version="1.2.2 (732a01da63, 2022-12-09)"
   xmlns:inkscape="http://www.inkscape.org/namespaces/inkscape"
   xmlns:sodipodi="http://sodipodi.sourceforge.net/DTD/sodipodi-0.dtd"
   xmlns="http://www.w3.org/2000/svg"
   xmlns:svg="http://www.w3.org/2000/svg"><defs
   id="defs51" /><sodipodi:namedview
   id="namedview49"
   pagecolor="#ffffff"
   bordercolor="#000000"
   borderopacity="0.25"
   inkscape:showpageshadow="2"
   inkscape:pageopacity="0.0"
   inkscape:pagecheckerboard="0"
   inkscape:deskcolor="#d1d1d1"
   showgrid="false"
   inkscape:zoom="0.96484375"
   inkscape:cx="249.78138"
   inkscape:cy="151.31984"
   inkscape:window-width="1366"
   inkscape:window-height="697"
   inkscape:window-x="-8"
   inkscape:window-y="-8"
   inkscape:window-maximized="1"
   inkscape:current-layer="Layer_1" />
<style
   type="text/css"
   id="style31">
	.st0{fill:#BEC6D2;}
	.st1{opacity:5.000000e-002;fill:#A7A9AC;enable-background:new    ;}
	.st2{fill:#D3DEE2;}
</style>
<g
   id="XMLID_6_"
   transform="translate(-6,-104.9)">
	<path
   id="XMLID_10_"
   class="st0"
   d="m 465.7,137.1 c -5.4,0 -10.6,1.1 -15.3,3.1 -10.7,-20.9 -32.1,-35.3 -57.2,-35.3 -25,0 -46.5,14.4 -57.2,35.3 -4.7,-1.9 -9.9,-3.1 -15.3,-3.1 -22.3,0 -40.3,18.1 -40.3,40.3 0,22.2 18.1,40.3 40.3,40.3 8.6,0 16.6,-2.8 23.2,-7.4 11.8,14.3 29.4,23.5 49.4,23.5 19.9,0 37.6,-9.3 49.4,-23.5 6.5,4.6 14.5,7.4 23.2,7.4 22.3,0 40.3,-18.1 40.3,-40.3 0,-22.2 -18.3,-40.3 -40.5,-40.3 z" />
	<path
   id="XMLID_9_"
   class="st1"
   d="m 398.5,172 c -43.4,-4.4 -84.1,1.7 -116.2,15.2 4,18.1 20.1,31.5 39.3,31.5 8.6,0 16.6,-2.8 23.2,-7.4 11.8,14.3 29.4,23.5 49.4,23.5 19.9,0 37.6,-9.3 49.4,-23.5 6.5,4.6 14.5,7.4 23.2,7.4 12.9,0 24.4,-6.1 31.8,-15.6 -27.5,-15.9 -62,-27.3 -100.1,-31.1 z" />
	<path
   id="XMLID_8_"
   class="st2"
   d="m 465.7,143.6 c -5.4,0 -10.6,1.1 -15.3,3.1 -10.7,-20.9 -32.1,-35.3 -57.2,-35.3 -25,0 -46.5,14.4 -57.2,35.3 -4.7,-1.9 -9.9,-3.1 -15.3,-3.1 -22.3,0 -40.3,18.1 -40.3,40.3 0,22.2 18.1,40.3 40.3,40.3 8.6,0 16.6,-2.8 23.2,-7.4 11.8,14.3 29.4,23.5 49.4,23.5 19.9,0 37.6,-9.3 49.4,-23.5 6.5,4.6 14.5,7.4 23.2,7.4 22.3,0 40.3,-18.1 40.3,-40.3 0,-22.2 -18.3,-40.3 -40.5,-40.3 z" />
	<path
   id="XMLID_7_"
   class="st0"
   d="m 348.1,168.8 c 3.4,0 6.5,0.7 9.5,1.9 6.6,-12.9 19.9,-21.8 35.3,-21.8 15.5,0 28.7,8.9 35.3,21.8 2.9,-1.2 6.1,-1.9 9.5,-1.9 12.6,0 23,9.3 24.6,21.5 0.1,-1.1 0.3,-2.3 0.3,-3.4 0,-13.8 -11.1,-24.9 -24.9,-24.9 -3.3,0 -6.5,0.7 -9.5,1.9 -6.6,-12.9 -19.9,-21.8 -35.3,-21.8 -15.5,0 -28.7,8.9 -35.3,21.8 -2.9,-1.2 -6.1,-1.9 -9.5,-1.9 -13.8,0 -24.9,11.1 -24.9,24.9 0,1.2 0.1,2.3 0.3,3.4 1.6,-12.2 12,-21.5 24.6,-21.5 z" />
</g>
<g
   id="XMLID_1_"
   transform="translate(-6,-104.9)">
	<path
   id="XMLID_5_"
   class="st0"
   d="m 192.7,137.1 c -5.4,0 -10.6,1.1 -15.3,3.1 -10.7,-20.9 -32.1,-35.3 -57.2,-35.3 -25.1,0 -46.5,14.4 -57.2,35.3 -4.7,-1.9 -9.9,-3.1 -15.3,-3.1 -22.3,0 -40.3,18.1 -40.3,40.3 0,22.2 18.1,40.3 40.3,40.3 8.6,0 16.6,-2.8 23.2,-7.4 11.8,14.3 29.4,23.5 49.4,23.5 20,0 37.6,-9.3 49.4,-23.5 6.5,4.6 14.5,7.4 23.2,7.4 22.3,0 40.3,-18.1 40.3,-40.3 0,-22.2 -18.3,-40.3 -40.5,-40.3 z" />
	<path
   id="XMLID_4_"
   class="st1"
   d="m 125.5,172 c -43.4,-4.4 -84.1,1.7 -116.2,15.2 4,18.1 20.1,31.5 39.3,31.5 8.6,0 16.6,-2.8 23.2,-7.4 11.8,14.3 29.4,23.5 49.4,23.5 20,0 37.6,-9.3 49.4,-23.5 6.5,4.6 14.5,7.4 23.2,7.4 12.9,0 24.4,-6.1 31.8,-15.6 C 198,187.2 163.6,175.8 125.5,172 Z" />
	<path
   id="XMLID_3_"
   class="st2"
   d="m 192.7,143.6 c -5.4,0 -10.6,1.1 -15.3,3.1 -10.7,-20.9 -32.1,-35.3 -57.2,-35.3 -25.1,0 -46.5,14.4 -57.2,35.3 -4.7,-1.9 -9.9,-3.1 -15.3,-3.1 -22.3,0 -40.3,18.1 -40.3,40.3 0,22.2 18.1,40.3 40.3,40.3 8.6,0 16.6,-2.8 23.2,-7.4 11.8,14.3 29.4,23.5 49.4,23.5 20,0 37.6,-9.3 49.4,-23.5 6.5,4.6 14.5,7.4 23.2,7.4 22.3,0 40.3,-18.1 40.3,-40.3 0,-22.2 -18.3,-40.3 -40.5,-40.3 z" />
	<path
   id="XMLID_2_"
   class="st0"
   d="m 75.1,168.8 c 3.4,0 6.5,0.7 9.5,1.9 6.6,-12.9 19.9,-21.8 35.3,-21.8 15.4,0 28.7,8.9 35.3,21.8 2.9,-1.2 6.1,-1.9 9.5,-1.9 12.6,0 23,9.3 24.6,21.5 0.1,-1.1 0.3,-2.3 0.3,-3.4 0,-13.8 -11.1,-24.9 -24.9,-24.9 -3.3,0 -6.5,0.7 -9.5,1.9 -6.6,-12.9 -19.9,-21.8 -35.3,-21.8 -15.4,0 -28.7,8.9 -35.3,21.8 -2.9,-1.2 -6.1,-1.9 -9.5,-1.9 -13.8,0 -24.9,11.1 -24.9,24.9 0,1.2 0.1,2.3 0.3,3.4 1.6,-12.2 12,-21.5 24.6,-21.5 z" />
</g>
<g
   id="XMLID_78_"
   transform="translate(-6,-104.9)">
	<path
   id="XMLID_637_"
   class="st0"
   d="m 416.7,177.4 c -12,0 -23.5,2.5 -34,6.8 C 359.1,138 311.5,106 256,106 c -55.5,0 -103.1,32 -126.7,78.2 -10.5,-4.3 -21.9,-6.8 -34,-6.8 C 46,177.4 6,217.4 6,266.7 6,316 46,356 95.3,356 c 19.1,0 36.8,-6.1 51.3,-16.4 26.2,31.6 65.2,52.1 109.4,52.1 44.2,0 83.2,-20.5 109.4,-52.1 14.5,10.2 32.2,16.4 51.3,16.4 49.3,0 89.3,-40 89.3,-89.3 0,-49.3 -40,-89.3 -89.3,-89.3 z" />
	<path
   id="XMLID_636_"
   class="st1"
   d="m 267.8,254.6 c -96.2,-9.7 -186.3,3.7 -257.5,33.7 8.9,40 44.5,69.9 87.1,69.9 19.1,0 36.8,-6.1 51.3,-16.4 26.2,31.6 65.2,52.1 109.4,52.1 44.2,0 83.2,-20.5 109.4,-52.1 14.5,10.2 32.2,16.4 51.3,16.4 28.6,0 54,-13.5 70.4,-34.5 -60.6,-35.4 -136.9,-60.6 -221.4,-69.1 z" />
	<path
   id="XMLID_635_"
   class="st2"
   d="m 416.7,191.7 c -12,0 -23.5,2.5 -34,6.8 C 359,152.3 311.5,120.3 256,120.3 c -55.5,0 -103.1,32 -126.7,78.2 -10.5,-4.3 -21.9,-6.8 -34,-6.8 C 46,191.7 6,231.7 6,281 c 0,49.3 40,89.3 89.3,89.3 19.1,0 36.8,-6.1 51.3,-16.4 26.2,31.6 65.2,52.1 109.4,52.1 44.2,0 83.2,-20.5 109.4,-52.1 14.5,10.2 32.2,16.4 51.3,16.4 49.3,0 89.3,-40 89.3,-89.3 0,-49.3 -40,-89.3 -89.3,-89.3 z" />
	<path
   id="XMLID_541_"
   class="st0"
   d="m 156.2,247.5 c 7.5,0 14.5,1.5 21,4.2 14.6,-28.6 44,-48.3 78.3,-48.3 34.3,0 63.7,19.8 78.3,48.3 6.5,-2.7 13.6,-4.2 21,-4.2 27.9,0 50.9,20.7 54.6,47.6 0.3,-2.5 0.6,-5 0.6,-7.5 0,-30.5 -24.7,-55.2 -55.2,-55.2 -7.4,0 -14.5,1.5 -21,4.2 -14.6,-28.6 -44,-48.3 -78.3,-48.3 -34.3,0 -63.7,19.8 -78.3,48.3 -6.5,-2.7 -13.5,-4.2 -21,-4.2 -30.5,0 -55.2,24.7 -55.2,55.2 0,2.6 0.2,5.1 0.6,7.5 3.6,-26.9 26.6,-47.6 54.6,-47.6 z" />
</g>
</svg>
