<?xml version="1.0" encoding="UTF-8" standalone="no"?>
<!-- Generator: Adobe Illustrator 19.0.0, SVG Export Plug-In . SVG Version: 6.00 Build 0)  -->

<svg
   version="1.1"
   id="Layer_1"
   x="0px"
   y="0px"
   viewBox="0 0 500 405"
   xml:space="preserve"
   sodipodi:docname="rain_thunder.svg"
   width="500"
   height="405"
   inkscape:version="1.2.2 (732a01da63, 2022-12-09)"
   xmlns:inkscape="http://www.inkscape.org/namespaces/inkscape"
   xmlns:sodipodi="http://sodipodi.sourceforge.net/DTD/sodipodi-0.dtd"
   xmlns="http://www.w3.org/2000/svg"
   xmlns:svg="http://www.w3.org/2000/svg"><defs
   id="defs183" /><sodipodi:namedview
   id="namedview181"
   pagecolor="#ffffff"
   bordercolor="#000000"
   borderopacity="0.25"
   inkscape:showpageshadow="2"
   inkscape:pageopacity="0.0"
   inkscape:pagecheckerboard="0"
   inkscape:deskcolor="#d1d1d1"
   showgrid="false"
   inkscape:zoom="1.0097656"
   inkscape:cx="249.56286"
   inkscape:cy="150.52998"
   inkscape:window-width="1366"
   inkscape:window-height="697"
   inkscape:window-x="-8"
   inkscape:window-y="-8"
   inkscape:window-maximized="1"
   inkscape:current-layer="Layer_1" />
<style
   type="text/css"
   id="style143">
	.st0{fill:url(#XMLID_2_);}
	.st1{fill:#00AEEF;}
	.st2{fill:#BEC6D2;}
	.st3{opacity:5.000000e-002;fill:#A7A9AC;enable-background:new    ;}
	.st4{fill:#D3DEE2;}
</style>
<linearGradient
   id="XMLID_2_"
   gradientUnits="userSpaceOnUse"
   x1="1194.1239"
   y1="223.8"
   x2="1194.1239"
   y2="1"
   gradientTransform="rotate(180,719.98695,256)">
	<stop
   offset="0"
   style="stop-color:#F8F6C3"
   id="stop145" />
	<stop
   offset="2.186788e-002"
   style="stop-color:#F9F0B1"
   id="stop147" />
	<stop
   offset="8.719299e-002"
   style="stop-color:#FBE684"
   id="stop149" />
	<stop
   offset="0.1478"
   style="stop-color:#FDDE5B"
   id="stop151" />
	<stop
   offset="0.2018"
   style="stop-color:#FED935"
   id="stop153" />
	<stop
   offset="0.2472"
   style="stop-color:#FED616"
   id="stop155" />
	<stop
   offset="0.2784"
   style="stop-color:#FED504"
   id="stop157" />
	<stop
   offset="0.3882"
   style="stop-color:#FDD209"
   id="stop159" />
	<stop
   offset="0.5124"
   style="stop-color:#F9C713"
   id="stop161" />
	<stop
   offset="0.6436"
   style="stop-color:#F3B61B"
   id="stop163" />
	<stop
   offset="0.7796"
   style="stop-color:#EC9E21"
   id="stop165" />
	<stop
   offset="0.918"
   style="stop-color:#E48225"
   id="stop167" />
	<stop
   offset="1"
   style="stop-color:#DF6E26"
   id="stop169" />
</linearGradient>
<polygon
   id="XMLID_287_"
   class="st0"
   points="276.4,511 182,394 230.1,380.1 215.2,288.2 309.7,405.1 261.6,419.1 "
   style="fill:url(#XMLID_2_)"
   transform="translate(-6,-106)" />
<path
   id="XMLID_67_"
   class="st1"
   d="m 97,350.7 c 5.6,14.3 21.7,21.2 36,15.6 14.3,-5.6 21.2,-21.7 15.6,-36 -5.6,-14.3 -46.2,-41.4 -46.2,-41.4 0,0 -11,47.5 -5.4,61.8 z" />
<path
   id="XMLID_38_"
   class="st1"
   d="m 367,350.6 c 5.6,14.3 21.7,21.2 36,15.6 14.3,-5.6 21.2,-21.7 15.6,-36 -5.6,-14.3 -46.2,-41.4 -46.2,-41.4 0,0 -11,47.6 -5.4,61.8 z" />
<g
   id="XMLID_78_"
   transform="translate(-6,-106)">
	<path
   id="XMLID_637_"
   class="st2"
   d="m 416.7,177.4 c -12,0 -23.5,2.5 -34,6.8 C 359.1,138 311.5,106 256,106 c -55.5,0 -103.1,32 -126.7,78.2 -10.5,-4.3 -21.9,-6.8 -34,-6.8 C 46,177.4 6,217.4 6,266.7 6,316 46,356 95.3,356 c 19.1,0 36.8,-6.1 51.3,-16.4 26.2,31.6 65.2,52.1 109.4,52.1 44.2,0 83.2,-20.5 109.4,-52.1 14.5,10.2 32.2,16.4 51.3,16.4 49.3,0 89.3,-40 89.3,-89.3 0,-49.3 -40,-89.3 -89.3,-89.3 z" />
	<path
   id="XMLID_636_"
   class="st3"
   d="m 267.8,254.6 c -96.2,-9.7 -186.3,3.7 -257.5,33.7 8.9,40 44.5,69.9 87.1,69.9 19.1,0 36.8,-6.1 51.3,-16.4 26.2,31.6 65.2,52.1 109.4,52.1 44.2,0 83.2,-20.5 109.4,-52.1 14.5,10.2 32.2,16.4 51.3,16.4 28.6,0 54,-13.5 70.4,-34.5 -60.6,-35.4 -136.9,-60.6 -221.4,-69.1 z" />
	<path
   id="XMLID_635_"
   class="st4"
   d="m 416.7,191.7 c -12,0 -23.5,2.5 -34,6.8 C 359,152.3 311.5,120.3 256,120.3 c -55.5,0 -103.1,32 -126.7,78.2 -10.5,-4.3 -21.9,-6.8 -34,-6.8 C 46,191.7 6,231.7 6,281 c 0,49.3 40,89.3 89.3,89.3 19.1,0 36.8,-6.1 51.3,-16.4 26.2,31.6 65.2,52.1 109.4,52.1 44.2,0 83.2,-20.5 109.4,-52.1 14.5,10.2 32.2,16.4 51.3,16.4 49.3,0 89.3,-40 89.3,-89.3 0,-49.3 -40,-89.3 -89.3,-89.3 z" />
	<path
   id="XMLID_541_"
   class="st2"
   d="m 156.2,247.5 c 7.5,0 14.5,1.5 21,4.2 14.6,-28.6 44,-48.3 78.3,-48.3 34.3,0 63.7,19.8 78.3,48.3 6.5,-2.7 13.6,-4.2 21,-4.2 27.9,0 50.9,20.7 54.6,47.6 0.3,-2.5 0.6,-5 0.6,-7.5 0,-30.5 -24.7,-55.2 -55.2,-55.2 -7.4,0 -14.5,1.5 -21,4.2 -14.6,-28.6 -44,-48.3 -78.3,-48.3 -34.3,0 -63.7,19.8 -78.3,48.3 -6.5,-2.7 -13.5,-4.2 -21,-4.2 -30.5,0 -55.2,24.7 -55.2,55.2 0,2.6 0.2,5.1 0.6,7.5 3.6,-26.9 26.6,-47.6 54.6,-47.6 z" />
</g>
</svg>
