<?xml version="1.0" encoding="UTF-8" standalone="no"?>
<!-- Generator: Adobe Illustrator 19.0.0, SVG Export Plug-In . SVG Version: 6.00 Build 0)  -->

<svg
   version="1.1"
   id="Layer_1"
   x="0px"
   y="0px"
   viewBox="0 0 500 380.89999"
   xml:space="preserve"
   sodipodi:docname="snow.svg"
   width="500"
   height="380.89999"
   inkscape:version="1.2.2 (732a01da63, 2022-12-09)"
   xmlns:inkscape="http://www.inkscape.org/namespaces/inkscape"
   xmlns:sodipodi="http://sodipodi.sourceforge.net/DTD/sodipodi-0.dtd"
   xmlns="http://www.w3.org/2000/svg"
   xmlns:svg="http://www.w3.org/2000/svg"><defs
   id="defs323" /><sodipodi:namedview
   id="namedview321"
   pagecolor="#ffffff"
   bordercolor="#000000"
   borderopacity="0.25"
   inkscape:showpageshadow="2"
   inkscape:pageopacity="0.0"
   inkscape:pagecheckerboard="0"
   inkscape:deskcolor="#d1d1d1"
   showgrid="false"
   inkscape:zoom="1.0097656"
   inkscape:cx="249.56286"
   inkscape:cy="150.52998"
   inkscape:window-width="1366"
   inkscape:window-height="697"
   inkscape:window-x="-8"
   inkscape:window-y="-8"
   inkscape:window-maximized="1"
   inkscape:current-layer="Layer_1" />
<style
   type="text/css"
   id="style295">
	.st0{fill:#BEC6D2;}
	.st1{opacity:5.000000e-002;fill:#A7A9AC;enable-background:new    ;}
	.st2{fill:#D3DEE2;}
	.st3{fill:url(#XMLID_3_);}
	.st4{fill:url(#XMLID_4_);}
	.st5{fill:url(#XMLID_5_);}
</style>
<g
   id="XMLID_78_"
   transform="translate(-6,-106)">
	<path
   id="XMLID_637_"
   class="st0"
   d="m 416.7,177.4 c -12,0 -23.5,2.5 -34,6.8 C 359.1,138 311.5,106 256,106 c -55.5,0 -103.1,32 -126.7,78.2 -10.5,-4.3 -21.9,-6.8 -34,-6.8 C 46,177.4 6,217.4 6,266.7 6,316 46,356 95.3,356 c 19.1,0 36.8,-6.1 51.3,-16.4 26.2,31.6 65.2,52.1 109.4,52.1 44.2,0 83.2,-20.5 109.4,-52.1 14.5,10.2 32.2,16.4 51.3,16.4 49.3,0 89.3,-40 89.3,-89.3 0,-49.3 -40,-89.3 -89.3,-89.3 z" />
	<path
   id="XMLID_636_"
   class="st1"
   d="m 267.8,254.6 c -96.2,-9.7 -186.3,3.7 -257.5,33.7 8.9,40 44.5,69.9 87.1,69.9 19.1,0 36.8,-6.1 51.3,-16.4 26.2,31.6 65.2,52.1 109.4,52.1 44.2,0 83.2,-20.5 109.4,-52.1 14.5,10.2 32.2,16.4 51.3,16.4 28.6,0 54,-13.5 70.4,-34.5 -60.6,-35.4 -136.9,-60.6 -221.4,-69.1 z" />
	<path
   id="XMLID_635_"
   class="st2"
   d="m 416.7,191.7 c -12,0 -23.5,2.5 -34,6.8 C 359,152.3 311.5,120.3 256,120.3 c -55.5,0 -103.1,32 -126.7,78.2 -10.5,-4.3 -21.9,-6.8 -34,-6.8 C 46,191.7 6,231.7 6,281 c 0,49.3 40,89.3 89.3,89.3 19.1,0 36.8,-6.1 51.3,-16.4 26.2,31.6 65.2,52.1 109.4,52.1 44.2,0 83.2,-20.5 109.4,-52.1 14.5,10.2 32.2,16.4 51.3,16.4 49.3,0 89.3,-40 89.3,-89.3 0,-49.3 -40,-89.3 -89.3,-89.3 z" />
	<path
   id="XMLID_541_"
   class="st0"
   d="m 156.2,247.5 c 7.5,0 14.5,1.5 21,4.2 14.6,-28.6 44,-48.3 78.3,-48.3 34.3,0 63.7,19.8 78.3,48.3 6.5,-2.7 13.6,-4.2 21,-4.2 27.9,0 50.9,20.7 54.6,47.6 0.3,-2.5 0.6,-5 0.6,-7.5 0,-30.5 -24.7,-55.2 -55.2,-55.2 -7.4,0 -14.5,1.5 -21,4.2 -14.6,-28.6 -44,-48.3 -78.3,-48.3 -34.3,0 -63.7,19.8 -78.3,48.3 -6.5,-2.7 -13.5,-4.2 -21,-4.2 -30.5,0 -55.2,24.7 -55.2,55.2 0,2.6 0.2,5.1 0.6,7.5 3.6,-26.9 26.6,-47.6 54.6,-47.6 z" />
</g>
<radialGradient
   id="XMLID_3_"
   cx="375.5"
   cy="91.599998"
   r="32"
   gradientTransform="matrix(1,0,0,-1,-6,406)"
   gradientUnits="userSpaceOnUse">
	<stop
   offset="0"
   style="stop-color:#CEECFB"
   id="stop302" />
	<stop
   offset="1"
   style="stop-color:#E1F3FC"
   id="stop304" />
</radialGradient>
<path
   id="XMLID_215_"
   class="st3"
   d="m 397,309.9 h -16.7 l 11.8,-11.8 c 1.7,-1.7 1.7,-4.6 0,-6.3 -1.7,-1.7 -4.6,-1.7 -6.3,0 L 374,303.6 v -16.7 c 0,-2.5 -2,-4.5 -4.5,-4.5 -2.5,0 -4.5,2 -4.5,4.5 v 16.7 l -11.8,-11.8 c -1.7,-1.7 -4.6,-1.7 -6.3,0 -1.7,1.7 -1.7,4.6 0,6.3 l 11.8,11.8 H 342 c -2.5,0 -4.5,2 -4.5,4.5 0,2.5 2,4.5 4.5,4.5 h 16.7 l -11.8,11.8 c -1.7,1.7 -1.7,4.6 0,6.3 1.7,1.7 4.6,1.7 6.3,0 L 365,325.2 v 16.7 c 0,2.5 2,4.5 4.5,4.5 2.5,0 4.5,-2 4.5,-4.5 v -16.7 l 11.8,11.8 c 1.7,1.7 4.6,1.7 6.3,0 1.7,-1.7 1.7,-4.6 0,-6.3 L 380.3,318.9 H 397 c 2.5,0 4.5,-2 4.5,-4.5 0,-2.5 -2,-4.5 -4.5,-4.5 z"
   style="fill:url(#XMLID_3_)" />
<radialGradient
   id="XMLID_4_"
   cx="129.5"
   cy="87.170998"
   r="31.9645"
   gradientTransform="matrix(1,0,0,-1,-6,406)"
   gradientUnits="userSpaceOnUse">
	<stop
   offset="0"
   style="stop-color:#CEECFB"
   id="stop308" />
	<stop
   offset="1"
   style="stop-color:#E1F3FC"
   id="stop310" />
</radialGradient>
<path
   id="XMLID_213_"
   class="st4"
   d="m 151,314.4 h -16.7 l 11.8,-11.8 c 1.7,-1.7 1.7,-4.6 0,-6.3 -1.7,-1.7 -4.6,-1.7 -6.3,0 L 128,308.1 v -16.7 c 0,-2.5 -2,-4.5 -4.5,-4.5 -2.5,0 -4.5,2 -4.5,4.5 v 16.7 l -11.8,-11.8 c -1.7,-1.7 -4.6,-1.7 -6.3,0 -1.7,1.7 -1.7,4.6 0,6.3 l 11.8,11.8 H 96 c -2.5,0 -4.5,2 -4.5,4.5 0,2.5 2,4.5 4.5,4.5 h 16.7 l -11.8,11.8 c -1.7,1.7 -1.7,4.6 0,6.3 1.7,1.7 4.6,1.7 6.3,0 L 119,329.7 v 16.7 c 0,2.5 2,4.5 4.5,4.5 2.5,0 4.5,-2 4.5,-4.5 v -16.7 l 11.8,11.8 c 1.7,1.7 4.6,1.7 6.3,0 1.7,-1.7 1.7,-4.6 0,-6.3 L 134.3,323.4 H 151 c 2.5,0 4.5,-2 4.5,-4.5 0,-2.5 -2.1,-4.5 -4.5,-4.5 z"
   style="fill:url(#XMLID_4_)" />
<radialGradient
   id="XMLID_5_"
   cx="256.5"
   cy="57.171001"
   r="31.9645"
   gradientTransform="matrix(1,0,0,-1,-6,406)"
   gradientUnits="userSpaceOnUse">
	<stop
   offset="0"
   style="stop-color:#CEECFB"
   id="stop314" />
	<stop
   offset="1"
   style="stop-color:#E1F3FC"
   id="stop316" />
</radialGradient>
<path
   id="XMLID_1_"
   class="st5"
   d="m 278,344.4 h -16.7 l 11.8,-11.8 c 1.7,-1.7 1.7,-4.6 0,-6.3 -1.7,-1.7 -4.6,-1.7 -6.3,0 L 255,338.1 v -16.7 c 0,-2.5 -2,-4.5 -4.5,-4.5 -2.5,0 -4.5,2 -4.5,4.5 v 16.7 l -11.8,-11.8 c -1.7,-1.7 -4.6,-1.7 -6.3,0 -1.7,1.7 -1.7,4.6 0,6.3 l 11.8,11.8 H 223 c -2.5,0 -4.5,2 -4.5,4.5 0,2.5 2,4.5 4.5,4.5 h 16.7 l -11.8,11.8 c -1.7,1.7 -1.7,4.6 0,6.3 1.7,1.7 4.6,1.7 6.3,0 L 246,359.7 v 16.7 c 0,2.5 2,4.5 4.5,4.5 2.5,0 4.5,-2 4.5,-4.5 v -16.7 l 11.8,11.8 c 1.7,1.7 4.6,1.7 6.3,0 1.7,-1.7 1.7,-4.6 0,-6.3 L 261.3,353.4 H 278 c 2.5,0 4.5,-2 4.5,-4.5 0,-2.5 -2.1,-4.5 -4.5,-4.5 z"
   style="fill:url(#XMLID_5_)" />
</svg>
